# xmcd
#
# Track frame offsets:
#	150
#	16032
#	35075
#	56300
#	75530
#	88562
#	100152
#	120345
#	138077
#	155122
#	174292
#	195110
#	208712
#	224420
#	242917
#	256632
#	273257
#
# Disc length: 3843 seconds
#
# Revision: 0
# Processed by: cddbd v1.4PL0 Copyright (c) Steve Scherf et al.
# Submitted via: audiograbber 1.80
#
DISCID=d20f0111
DTITLE=Enrico Caruso - Complete Recordings Vol.13
DYEAR=1900
DGENRE=
TTITLE0=Sei morta ne la vita mia
TTITLE1=A la luz de la luna
TTITLE2=La Partida
TTITLE3=Sleale! il segreto fu dunque violato?
TTITLE4=Over there
TTITLE5=Inno di Garibaldi
TTITLE6=Piata, signore
TTITLE7=Campane a sera
TTITLE8=A Granada
TTITLE9=Le regiment de sambre et meuse
TTITLE10=La campana di San Giusto
TTITLE11=Sultanto a.tte
TTITLE12=Je viens celebrer la victoire
TTITLE13=Venti scudi
TTITLE14='A vucchella
TTITLE15=Vieni sul mar
TTITLE16=Addio a Napoli
EXTD=
EXTT0=
EXTT1=
EXTT2=
EXTT3=
EXTT4=
EXTT5=
EXTT6=
EXTT7=
EXTT8=
EXTT9=
EXTT10=
EXTT11=
EXTT12=
EXTT13=
EXTT14=
EXTT15=
EXTT16=
PLAYORDER=
